<global>
ampeg_release=3.60

<group>
group_label=RR1
seq_length=4
seq_position=1

<region>
hivel=103
key=c3
lovel=78
offset=490
sample=Cowbell_open_F_C5_RR1.opus

<region>
hivel=127
key=c3
lovel=104
offset=491
sample=Cowbell_open_FF_C5_RR1.opus

<region>
hivel=77
key=c3
lovel=52
offset=490
sample=Cowbell_open_MF_C5_RR1.opus

<region>
hivel=51
key=c3
lovel=26
offset=13467
sample=Cowbell_open_MP_C5_RR1.opus

<region>
hivel=25
key=c3
lovel=0
offset=8059
sample=Cowbell_open_P_C5_RR1.opus

<group>
group_label=RR2
seq_length=4
seq_position=2

<region>
hivel=103
key=c3
lovel=78
offset=491
sample=Cowbell_open_F_C5_RR2.opus

<region>
hivel=127
key=c3
lovel=104
offset=491
sample=Cowbell_open_FF_C5_RR2.opus

<region>
hivel=77
key=c3
lovel=52
offset=502
sample=Cowbell_open_MF_C5_RR2.opus

<region>
hivel=51
key=c3
lovel=26
offset=12774
sample=Cowbell_open_MP_C5_RR2.opus

<region>
hivel=25
key=c3
lovel=0
offset=1367
sample=Cowbell_open_P_C5_RR2.opus

<group>
group_label=RR3
seq_length=4
seq_position=3

<region>
hivel=103
key=c3
lovel=78
offset=495
sample=Cowbell_open_F_C5_RR3.opus

<region>
hivel=127
key=c3
lovel=104
offset=492
sample=Cowbell_open_FF_C5_RR3.opus

<region>
hivel=77
key=c3
lovel=52
offset=491
sample=Cowbell_open_MF_C5_RR3.opus

<region>
hivel=51
key=c3
lovel=26
offset=15445
sample=Cowbell_open_MP_C5_RR3.opus

<region>
hivel=25
key=c3
lovel=0
offset=480
sample=Cowbell_open_P_C5_RR3.opus

<group>
group_label=RR4
seq_length=4
seq_position=4

<region>
hivel=103
key=c3
lovel=78
offset=491
sample=Cowbell_open_F_C5_RR4.opus

<region>
hivel=127
key=c3
lovel=104
offset=491
sample=Cowbell_open_FF_C5_RR4.opus

<region>
hivel=77
key=c3
lovel=52
offset=492
sample=Cowbell_open_MF_C5_RR4.opus

<region>
hivel=51
key=c3
lovel=26
offset=11564
sample=Cowbell_open_MP_C5_RR4.opus

<region>
hivel=25
key=c3
lovel=0
sample=Cowbell_open_P_C5_RR4.opus

<group>
group_label=Muted_RR1
seq_length=4
seq_position=1

<region>
hivel=103
key=c#3
lovel=78
offset=490
sample=Cowbell_muted_F_C5_RR1.opus

<region>
hivel=127
key=c#3
lovel=104
offset=493
sample=Cowbell_muted_FF_C5_RR1.opus

<region>
hivel=77
key=c#3
lovel=52
offset=489
sample=Cowbell_muted_MF_C5_RR1.opus

<region>
hivel=51
key=c#3
lovel=26
offset=15049
sample=Cowbell_muted_MP_C5_RR1.opus

<region>
hivel=25
key=c#3
lovel=0
offset=1316
sample=Cowbell_muted_P_C5_RR1.opus

<group>
group_label=Muted_RR2
seq_length=4
seq_position=2

<region>
hivel=103
key=c#3
lovel=78
offset=500
sample=Cowbell_muted_F_C5_RR2.opus

<region>
hivel=127
key=c#3
lovel=104
offset=475
sample=Cowbell_muted_FF_C5_RR2.opus

<region>
hivel=77
key=c#3
lovel=52
offset=490
sample=Cowbell_muted_MF_C5_RR2.opus

<region>
hivel=51
key=c#3
lovel=26
offset=12075
sample=Cowbell_muted_MP_C5_RR2.opus

<region>
hivel=25
key=c#3
lovel=0
offset=12309
sample=Cowbell_muted_P_C5_RR2.opus

<group>
group_label=Muted_RR3
seq_length=4
seq_position=3

<region>
hivel=103
key=c#3
lovel=78
offset=491
sample=Cowbell_muted_F_C5_RR3.opus

<region>
hivel=127
key=c#3
lovel=104
offset=475
sample=Cowbell_muted_FF_C5_RR3.opus

<region>
hivel=77
key=c#3
lovel=52
offset=490
sample=Cowbell_muted_MF_C5_RR3.opus

<region>
hivel=51
key=c#3
lovel=26
offset=12550
sample=Cowbell_muted_MP_C5_RR3.opus

<region>
hivel=25
key=c#3
lovel=0
offset=15947
sample=Cowbell_muted_P_C5_RR3.opus

<group>
group_label=Muted_RR4
seq_length=4
seq_position=4

<region>
hivel=103
key=c#3
lovel=78
offset=500
sample=Cowbell_muted_F_C5_RR4.opus

<region>
hivel=127
key=c#3
lovel=104
offset=478
sample=Cowbell_muted_FF_C5_RR4.opus

<region>
hivel=77
key=c#3
lovel=52
offset=489
sample=Cowbell_muted_MF_C5_RR4.opus

<region>
hivel=51
key=c#3
lovel=26
offset=14237
sample=Cowbell_muted_MP_C5_RR4.opus

<region>
hivel=25
key=c#3
lovel=0
offset=12786
sample=Cowbell_muted_P_C5_RR4.opus

<group>
group_label=Tip_RR1
seq_length=4
seq_position=1

<region>
hivel=103
key=b2
lovel=78
offset=480
sample=Cowbell_tip_F_C5_RR1.opus

<region>
hivel=127
key=b2
lovel=104
offset=495
sample=Cowbell_tip_FF_C5_RR1.opus

<region>
hivel=77
key=b2
lovel=52
offset=480
sample=Cowbell_tip_MF_C5_RR1.opus

<region>
hivel=51
key=b2
lovel=26
offset=12372
sample=Cowbell_tip_MP_C5_RR1.opus

<region>
hivel=25
key=b2
lovel=0
offset=9407
sample=Cowbell_tip_P_C5_RR1.opus

<group>
group_label=Tip_RR2
seq_length=4
seq_position=2

<region>
hivel=103
key=b2
lovel=78
offset=481
sample=Cowbell_tip_F_C5_RR2.opus

<region>
hivel=127
key=b2
lovel=104
offset=483
sample=Cowbell_tip_FF_C5_RR2.opus

<region>
hivel=77
key=b2
lovel=52
offset=480
sample=Cowbell_tip_MF_C5_RR2.opus

<region>
hivel=51
key=b2
lovel=26
offset=7307
sample=Cowbell_tip_MP_C5_RR2.opus

<region>
hivel=25
key=b2
lovel=0
offset=11472
sample=Cowbell_tip_P_C5_RR2.opus

<group>
group_label=Tip_RR3
seq_length=4
seq_position=3

<region>
hivel=103
key=b2
lovel=78
offset=480
sample=Cowbell_tip_F_C5_RR3.opus

<region>
hivel=127
key=b2
lovel=104
offset=483
sample=Cowbell_tip_FF_C5_RR3.opus

<region>
hivel=77
key=b2
lovel=52
offset=489
sample=Cowbell_tip_MF_C5_RR3.opus

<region>
hivel=51
key=b2
lovel=26
offset=11417
sample=Cowbell_tip_MP_C5_RR3.opus

<region>
hivel=25
key=b2
lovel=0
offset=12658
sample=Cowbell_tip_P_C5_RR3.opus

<group>
group_label=Tip_RR4
seq_length=4
seq_position=4

<region>
hivel=103
key=b2
lovel=78
offset=480
sample=Cowbell_tip_F_C5_RR4.opus

<region>
hivel=127
key=b2
lovel=104
offset=480
sample=Cowbell_tip_FF_C5_RR4.opus

<region>
hivel=77
key=b2
lovel=52
offset=480
sample=Cowbell_tip_MF_C5_RR4.opus

<region>
hivel=51
key=b2
lovel=26
offset=13375
sample=Cowbell_tip_MP_C5_RR4.opus

<region>
hivel=25
key=b2
lovel=0
offset=11475
sample=Cowbell_tip_P_C5_RR4.opus

